
<svg width="169" height="50" viewBox="0 0 169 50" fill="none" xmlns="http://www.w3.org/2000/svg">
<rect width="169" height="50" rx="6" fill="#0D0727"/>
<path d="M36.3853 24.3007C36.4025 22.982 36.7529 21.6891 37.4039 20.5422C38.0549 19.3952 38.9853 18.4315 40.1087 17.7406C39.395 16.7212 38.4535 15.8822 37.3589 15.2902C36.2643 14.6982 35.0468 14.3695 33.803 14.3302C31.1479 14.052 28.5751 15.9184 27.2223 15.9184C25.8442 15.9184 23.7613 14.357 21.5203 14.4044C20.07 14.4512 18.6565 14.873 17.4177 15.6285C16.1788 16.3841 15.1568 17.4477 14.4513 18.7157C11.3948 24.0068 13.6753 31.7838 16.6022 36.0619C18.0672 38.1559 19.7787 40.4949 22.0197 40.4127C24.2117 40.321 25.0303 39.014 27.6774 39.014C30.2977 39.014 31.0658 40.4127 33.351 40.3605C35.7042 40.321 37.185 38.2555 38.5978 36.1409C39.6511 34.6489 40.4619 32.9997 41 31.2544C39.633 30.6765 38.4664 29.7089 37.6458 28.4723C36.8251 27.2357 36.3867 25.7849 36.3853 24.3007ZM32.0677 11.5155C33.3503 9.9763 33.9825 7.99774 33.8298 6C31.8701 6.20573 30.0599 7.14245 28.76 8.62342C28.1246 9.34639 27.6379 10.1875 27.3277 11.0986C27.0175 12.0097 26.8898 12.973 26.952 13.9335C27.9321 13.9436 28.9017 13.7312 29.7878 13.3124C30.6739 12.8936 31.4534 12.2792 32.0677 11.5155Z" fill="white"/>
<path d="M64.8427 35.025H58.9276L57.5063 39.2201H55L60.6051 23.6972H63.209L68.8128 39.2201H66.264L64.8427 35.025ZM59.5389 33.0875H64.229L61.9164 26.2798H61.8527L59.5389 33.0875ZM80.9156 33.5625C80.9156 37.0788 79.0331 39.3376 76.1918 39.3376C75.4725 39.3751 74.7571 39.2094 74.1275 38.8595C73.498 38.5096 72.9796 37.9895 72.6317 37.3588H72.5779V42.964H70.2529V27.9023H72.5029V29.7849H72.5442C72.908 29.1569 73.4353 28.6393 74.0699 28.2871C74.7045 27.935 75.4226 27.7614 76.148 27.7848C79.0206 27.7848 80.9144 30.0549 80.9144 33.5625H80.9156ZM78.5281 33.5625C78.5281 31.2712 77.3431 29.7649 75.5368 29.7649C73.7617 29.7649 72.5679 31.3024 72.5679 33.5625C72.5679 35.8425 73.7617 37.3701 75.5368 37.3701C77.3431 37.3701 78.5281 35.8738 78.5281 33.5625ZM93.3722 33.5625C93.3722 37.0788 91.4897 39.3376 88.6483 39.3376C87.929 39.3751 87.2137 39.2094 86.5841 38.8595C85.9545 38.5096 85.4362 37.9895 85.0883 37.3588H85.0345V42.964H82.7107V27.9023H84.9595V29.7849H85.002C85.3659 29.1569 85.8931 28.6393 86.5277 28.2871C87.1623 27.935 87.8805 27.7614 88.6058 27.7848C91.4784 27.7848 93.3722 30.0549 93.3722 33.5625ZM90.9846 33.5625C90.9846 31.2712 89.7996 29.7649 87.9933 29.7649C86.2183 29.7649 85.0245 31.3024 85.0245 33.5625C85.0245 35.8425 86.2183 37.3701 87.9933 37.3701C89.7996 37.3701 90.9834 35.8738 90.9834 33.5625H90.9846ZM101.604 34.895C101.776 36.4351 103.271 37.4451 105.316 37.4451C107.274 37.4451 108.683 36.4351 108.683 35.0463C108.683 33.8412 107.833 33.1212 105.82 32.6262L103.809 32.1412C100.959 31.4537 99.6349 30.1199 99.6349 27.9561C99.6349 25.2785 101.969 23.4385 105.284 23.4385C108.564 23.4385 110.813 25.2785 110.888 27.9561H108.543C108.403 26.4073 107.123 25.4723 105.25 25.4723C103.377 25.4723 102.099 26.4186 102.099 27.7948C102.099 28.8924 102.916 29.5386 104.917 30.0324L106.628 30.4524C109.813 31.2062 111.135 32.485 111.135 34.7563C111.135 37.6601 108.823 39.4789 105.144 39.4789C101.701 39.4789 99.3761 37.7038 99.2261 34.895H101.604ZM116.149 25.2248V27.9023H118.302V29.7424H116.149V35.9813C116.149 36.9513 116.58 37.4026 117.527 37.4026C117.782 37.3981 118.037 37.3802 118.29 37.3488V39.1776C117.865 39.2571 117.433 39.2931 117 39.2851C114.709 39.2851 113.815 38.4239 113.815 36.2288V29.7424H112.17V27.9023H113.815V25.2248H116.149ZM119.548 33.5625C119.548 30.0011 121.645 27.7636 124.915 27.7636C128.197 27.7636 130.284 30.0011 130.284 33.5625C130.284 37.1326 128.208 39.3601 124.915 39.3601C121.624 39.3601 119.548 37.1326 119.548 33.5625ZM127.917 33.5625C127.917 31.1199 126.798 29.6774 124.915 29.6774C123.033 29.6774 121.915 31.1299 121.915 33.5625C121.915 36.015 123.033 37.4451 124.915 37.4451C126.798 37.4451 127.917 36.015 127.917 33.5625ZM132.199 27.9023H134.416V29.8286H134.469C134.62 29.2274 134.972 28.6961 135.468 28.324C135.963 27.9519 136.572 27.7615 137.191 27.7848C137.459 27.7837 137.726 27.8127 137.987 27.8711V30.0436C137.649 29.9405 137.297 29.8932 136.943 29.9036C136.606 29.8899 136.269 29.9494 135.957 30.078C135.645 30.2066 135.364 30.4013 135.134 30.6486C134.904 30.896 134.73 31.1902 134.624 31.5111C134.519 31.8319 134.484 32.1718 134.522 32.5075V39.2201H132.199V27.9023ZM148.697 35.8963C148.385 37.9501 146.385 39.3601 143.825 39.3601C140.532 39.3601 138.488 37.1551 138.488 33.6162C138.488 30.0661 140.543 27.7636 143.726 27.7636C146.859 27.7636 148.826 29.9136 148.826 33.3462V34.1425H140.833V34.2825C140.797 34.699 140.849 35.1186 140.987 35.5134C141.124 35.9082 141.345 36.2691 141.633 36.5722C141.921 36.8754 142.27 37.1138 142.657 37.2716C143.044 37.4294 143.461 37.503 143.878 37.4876C144.427 37.5389 144.978 37.4118 145.449 37.1251C145.919 36.8384 146.285 36.4074 146.491 35.8963H148.697ZM140.845 32.5187H146.502C146.523 32.1442 146.467 31.7695 146.336 31.418C146.205 31.0665 146.003 30.7458 145.742 30.4761C145.482 30.2063 145.168 29.9934 144.822 29.8506C144.475 29.7077 144.102 29.6381 143.727 29.6461C143.349 29.6438 142.974 29.7165 142.624 29.8599C142.274 30.0033 141.955 30.2146 141.687 30.4817C141.419 30.7488 141.207 31.0663 141.062 31.4159C140.918 31.7655 140.844 32.1403 140.845 32.5187Z" fill="white"/>
<path d="M57.6938 8.36751C58.1809 8.33256 58.6696 8.40614 59.1248 8.58295C59.58 8.75975 59.9903 9.03537 60.3261 9.38992C60.6618 9.74447 60.9148 10.1691 61.0666 10.6332C61.2184 11.0974 61.2653 11.5894 61.2039 12.0739C61.2039 14.4564 59.9164 15.8264 57.6938 15.8264H55V8.36626L57.6938 8.36751ZM56.1588 14.7714H57.5651C57.913 14.792 58.2611 14.7349 58.5842 14.604C58.9072 14.4732 59.1971 14.2719 59.4326 14.015C59.6681 13.7581 59.8433 13.4519 59.9456 13.1187C60.0479 12.7855 60.0746 12.4337 60.0239 12.0889C60.071 11.7454 60.0416 11.3957 59.9378 11.0649C59.834 10.7341 59.6583 10.4304 59.4233 10.1754C59.1883 9.9205 58.8999 9.72069 58.5786 9.59031C58.2574 9.45993 57.9112 9.40221 57.5651 9.42129H56.1588V14.7714ZM62.5114 13.0089C62.4774 12.6397 62.5208 12.2674 62.6387 11.9159C62.7567 11.5644 62.9467 11.2414 63.1965 10.9674C63.4464 10.6935 63.7506 10.4747 64.0898 10.3249C64.429 10.1752 64.7957 10.0979 65.1665 10.0979C65.5373 10.0979 65.904 10.1752 66.2432 10.3249C66.5824 10.4747 66.8866 10.6935 67.1365 10.9674C67.3863 11.2414 67.5763 11.5644 67.6943 11.9159C67.8122 12.2674 67.8556 12.6397 67.8216 13.0089C67.8585 13.3796 67.8173 13.754 67.7007 14.1079C67.5841 14.4618 67.3947 14.7873 67.1446 15.0635C66.8945 15.3398 66.5894 15.5605 66.2488 15.7116C65.9082 15.8627 65.5397 15.9407 65.1671 15.9407C64.7945 15.9407 64.4261 15.8627 64.0855 15.7116C63.7449 15.5605 63.4397 15.3398 63.1896 15.0635C62.9396 14.7873 62.7501 14.4618 62.6335 14.1079C62.5169 13.754 62.4758 13.3796 62.5127 13.0089H62.5114ZM66.679 13.0089C66.679 11.7888 66.1303 11.0751 65.169 11.0751C64.2027 11.0751 63.6602 11.7888 63.6602 13.0089C63.6602 14.2389 64.2027 14.9464 65.169 14.9464C66.1315 14.9464 66.679 14.2339 66.679 13.0089ZM74.878 15.8264H73.7255L72.5629 11.6801H72.4754L71.3167 15.8264H70.1754L68.6228 10.1976H69.7504L70.7579 14.4927H70.8416L71.9992 10.1976H73.0642L74.2217 14.4927H74.3092L75.313 10.1976H76.4243L74.878 15.8264ZM77.7293 10.1976H78.7981V11.0913H78.8806C79.0215 10.7702 79.2591 10.501 79.5602 10.3213C79.8614 10.1416 80.2111 10.0603 80.5606 10.0888C80.8346 10.0682 81.1096 10.1095 81.3654 10.2097C81.6212 10.3098 81.8512 10.4662 82.0383 10.6673C82.2255 10.8684 82.365 11.109 82.4465 11.3713C82.5281 11.6336 82.5496 11.9109 82.5094 12.1826V15.8264H81.3982V12.4614C81.3982 11.5563 81.0056 11.1063 80.1831 11.1063C79.9972 11.0977 79.8116 11.1294 79.6391 11.1992C79.4666 11.269 79.3112 11.3753 79.1836 11.5107C79.0559 11.6462 78.9591 11.8077 78.8997 11.984C78.8403 12.1604 78.8197 12.3475 78.8393 12.5326V15.8264H77.7293V10.1976ZM84.2795 8H85.3895V15.8252H84.2795V8ZM86.9345 13.0089C86.8995 12.6392 86.9421 12.2663 87.0596 11.914C87.1771 11.5617 87.3669 11.2379 87.6167 10.9632C87.8666 10.6885 88.1712 10.4691 88.5108 10.3189C88.8504 10.1688 89.2176 10.0912 89.589 10.0912C89.9603 10.0912 90.3276 10.1688 90.6672 10.3189C91.0068 10.4691 91.3113 10.6885 91.5612 10.9632C91.8111 11.2379 92.0009 11.5617 92.1184 11.914C92.2358 12.2663 92.2784 12.6392 92.2434 13.0089C92.2803 13.3796 92.2392 13.754 92.1226 14.1079C92.006 14.4618 91.8166 14.7873 91.5665 15.0635C91.3164 15.3398 91.0112 15.5605 90.6706 15.7116C90.33 15.8627 89.9616 15.9407 89.589 15.9407C89.2164 15.9407 88.8479 15.8627 88.5073 15.7116C88.1667 15.5605 87.8616 15.3398 87.6115 15.0635C87.3614 14.7873 87.172 14.4618 87.0554 14.1079C86.9388 13.754 86.8976 13.3796 86.9345 13.0089ZM91.1009 13.0089C91.1009 11.7888 90.5521 11.0751 89.5909 11.0751C88.6246 11.0751 88.0821 11.7888 88.0821 13.0089C88.0821 14.2389 88.6246 14.9464 89.5909 14.9464C90.5534 14.9464 91.1009 14.2339 91.1009 13.0089ZM93.4122 14.2339C93.4122 13.2214 94.1672 12.6364 95.5073 12.5539L97.0323 12.4664V11.9801C97.0323 11.3863 96.6385 11.0501 95.8798 11.0501C95.2585 11.0501 94.8297 11.2776 94.706 11.6751H93.631C93.7435 10.7088 94.6535 10.0876 95.931 10.0876C97.3411 10.0876 98.1373 10.7913 98.1373 11.9801V15.8264H97.0685V15.0352H96.981C96.8026 15.319 96.552 15.5504 96.2548 15.7057C95.9577 15.8609 95.6247 15.9345 95.2898 15.9189C95.0534 15.9436 94.8145 15.9184 94.5885 15.845C94.3625 15.7716 94.1544 15.6517 93.9776 15.4929C93.8008 15.3341 93.6592 15.1401 93.5621 14.9232C93.4649 14.7063 93.4143 14.4715 93.4135 14.2339H93.4122ZM97.031 13.7539V13.2826L95.656 13.3701C94.881 13.4226 94.531 13.6864 94.531 14.1827C94.531 14.6889 94.9697 14.9827 95.5735 14.9827C95.7504 15.0005 95.9291 14.9826 96.099 14.9301C96.2689 14.8776 96.4264 14.7914 96.5624 14.6768C96.6983 14.5622 96.8099 14.4215 96.8904 14.2629C96.9709 14.1044 97.0187 13.9313 97.031 13.7539ZM99.5974 13.0089C99.5974 11.2301 100.512 10.1038 101.935 10.1038C102.287 10.0878 102.635 10.1722 102.941 10.347C103.246 10.5219 103.496 10.78 103.66 11.0913H103.744V8H104.854V15.8252H103.79V14.9377H103.702C103.525 15.2471 103.267 15.5021 102.955 15.675C102.643 15.848 102.29 15.9324 101.934 15.9189C100.502 15.9189 99.5974 14.7927 99.5974 13.0089ZM100.745 13.0089C100.745 14.2027 101.307 14.9214 102.249 14.9214C103.186 14.9214 103.764 14.1927 103.764 13.0139C103.764 11.8413 103.179 11.1013 102.249 11.1013C101.314 11.1013 100.745 11.8263 100.745 13.0089ZM109.45 13.0089C109.415 12.6392 109.458 12.2663 109.575 11.914C109.693 11.5617 109.882 11.2379 110.132 10.9632C110.382 10.6885 110.687 10.4691 111.026 10.3189C111.366 10.1688 111.733 10.0912 112.105 10.0912C112.476 10.0912 112.843 10.1688 113.183 10.3189C113.522 10.4691 113.827 10.6885 114.077 10.9632C114.327 11.2379 114.516 11.5617 114.634 11.914C114.751 12.2663 114.794 12.6392 114.759 13.0089C114.796 13.3796 114.755 13.754 114.638 14.1079C114.522 14.4618 114.332 14.7873 114.082 15.0635C113.832 15.3398 113.527 15.5605 113.186 15.7116C112.846 15.8627 112.477 15.9407 112.105 15.9407C111.732 15.9407 111.363 15.8627 111.023 15.7116C110.682 15.5605 110.377 15.3398 110.127 15.0635C109.877 14.7873 109.688 14.4618 109.571 14.1079C109.454 13.754 109.413 13.3796 109.45 13.0089ZM113.616 13.0089C113.616 11.7888 113.069 11.0751 112.106 11.0751C111.141 11.0751 110.598 11.7888 110.598 13.0089C110.598 14.2389 111.141 14.9464 112.106 14.9464C113.069 14.9464 113.616 14.2339 113.616 13.0089ZM116.25 10.1976H117.319V11.0913H117.402C117.542 10.7702 117.78 10.501 118.081 10.3213C118.382 10.1416 118.732 10.0603 119.082 10.0888C119.356 10.0682 119.631 10.1095 119.886 10.2097C120.142 10.3098 120.372 10.4662 120.559 10.6673C120.746 10.8684 120.886 11.109 120.967 11.3713C121.049 11.6336 121.071 11.9109 121.03 12.1826V15.8264H119.919V12.4614C119.919 11.5563 119.527 11.1063 118.704 11.1063C118.518 11.0977 118.333 11.1294 118.16 11.1992C117.988 11.269 117.832 11.3753 117.705 11.5107C117.577 11.6462 117.48 11.8077 117.421 11.984C117.361 12.1604 117.341 12.3475 117.36 12.5326V15.8264H116.249L116.25 10.1976ZM127.307 8.79627V10.2226H128.527V11.1588H127.307V14.0527C127.307 14.6427 127.549 14.9014 128.103 14.9014C128.245 14.9008 128.386 14.892 128.527 14.8752V15.8002C128.327 15.8362 128.125 15.8554 127.922 15.8577C126.687 15.8577 126.196 15.4227 126.196 14.3377V11.1588H125.302V10.2226H126.196V8.79627H127.307ZM130.044 8H131.144V11.1013H131.232C131.38 10.7771 131.624 10.5065 131.931 10.3262C132.239 10.1459 132.594 10.0647 132.949 10.0938C133.222 10.079 133.494 10.1246 133.747 10.2272C134 10.3298 134.227 10.4869 134.412 10.6874C134.597 10.8879 134.736 11.1267 134.818 11.3869C134.9 11.6471 134.923 11.9222 134.887 12.1926V15.8264H133.776V12.4664C133.776 11.5663 133.357 11.1113 132.572 11.1113C132.381 11.0956 132.189 11.1219 132.009 11.1882C131.829 11.2545 131.666 11.3594 131.531 11.4953C131.396 11.6313 131.292 11.7952 131.227 11.9754C131.162 12.1557 131.137 12.348 131.154 12.5389V15.8264H130.044V8ZM141.365 14.3064C141.214 14.8206 140.887 15.2655 140.442 15.5632C139.996 15.861 139.46 15.9926 138.927 15.9352C138.556 15.9452 138.187 15.8744 137.846 15.7275C137.505 15.5806 137.201 15.3613 136.953 15.0847C136.706 14.8081 136.521 14.4809 136.413 14.1259C136.305 13.7709 136.275 13.3965 136.326 13.0289C136.277 12.6603 136.307 12.2855 136.415 11.9298C136.523 11.574 136.707 11.2457 136.953 10.9669C137.199 10.6882 137.502 10.4655 137.841 10.314C138.181 10.1625 138.549 10.0857 138.921 10.0888C140.487 10.0888 141.432 11.1588 141.432 12.9264V13.3139H137.457V13.3764C137.44 13.583 137.466 13.7911 137.533 13.9871C137.601 14.1831 137.709 14.3628 137.85 14.5147C137.991 14.6665 138.163 14.7871 138.353 14.8688C138.544 14.9505 138.75 14.9914 138.957 14.9889C139.223 15.0204 139.491 14.9723 139.73 14.8508C139.968 14.7293 140.164 14.5398 140.295 14.3064H141.365ZM137.457 12.4926H140.301C140.315 12.3036 140.29 12.1136 140.226 11.9351C140.162 11.7565 140.062 11.5932 139.931 11.4558C139.801 11.3184 139.643 11.2098 139.468 11.1372C139.292 11.0645 139.104 11.0293 138.915 11.0338C138.722 11.0315 138.532 11.0676 138.354 11.1401C138.176 11.2126 138.014 11.32 137.878 11.4559C137.742 11.5919 137.635 11.7536 137.563 11.9317C137.491 12.1097 137.455 12.3005 137.457 12.4926Z" fill="white"/>
</svg>