
<svg width="170" height="50" viewBox="0 0 170 50" fill="none" xmlns="http://www.w3.org/2000/svg">
<g clip-path="url(#clip0)">
<path d="M162.787 49.9913H6.26102C2.75485 49.9913 0 47.2423 0 43.7435V6.2566C0 2.75783 2.75485 0.00878906 6.26102 0.00878906H162.787C166.293 0.00878906 169.048 2.75783 169.048 6.2566V43.7435C169.048 47.2423 166.293 49.9913 162.787 49.9913Z" fill="#0D0727"/>
<path d="M162.787 1.00844C165.667 1.00844 168.046 3.38261 168.046 6.2566V43.7435C168.046 46.6175 165.667 48.9916 162.787 48.9916H6.26102C3.38095 48.9916 1.00176 46.6175 1.00176 43.7435V6.2566C1.00176 3.38261 3.38095 1.00844 6.26102 1.00844H162.787ZM162.787 0.00878906H6.26102C2.75485 0.00878906 0 2.88278 0 6.2566V43.7435C0 47.2423 2.75485 49.9913 6.26102 49.9913H162.787C166.293 49.9913 169.048 47.2423 169.048 43.7435V6.2566C169.048 2.88278 166.293 0.00878906 162.787 0.00878906Z" fill="black"/>
<path d="M59.355 12.7544C59.355 13.7541 59.1046 14.6288 58.4785 15.2535C57.7272 16.0033 56.8506 16.3781 55.7236 16.3781C54.5966 16.3781 53.7201 16.0033 52.9688 15.2535C52.2175 14.5038 51.8418 13.6291 51.8418 12.5045C51.8418 11.3799 52.2175 10.5052 52.9688 9.75547C53.7201 9.00573 54.5966 8.63086 55.7236 8.63086C56.2245 8.63086 56.7254 8.75582 57.2263 9.00573C57.7272 9.25564 58.1028 9.50555 58.3533 9.88042L57.7272 10.5052C57.2263 9.88042 56.6002 9.63051 55.7236 9.63051C54.9723 9.63051 54.221 9.88042 53.7201 10.5052C53.094 11.005 52.8436 11.7548 52.8436 12.6295C52.8436 13.5042 53.094 14.2539 53.7201 14.7537C54.3462 15.2535 54.9723 15.6284 55.7236 15.6284C56.6002 15.6284 57.2263 15.3785 57.8524 14.7537C58.228 14.3788 58.4785 13.879 58.4785 13.2542H55.7236V12.2546H59.355V12.7544ZM65.1152 9.63051H61.7342V12.0047H64.8647V12.8794H61.7342V15.2535H65.1152V16.2532H60.7324V8.75582H65.1152V9.63051ZM69.2474 16.2532H68.2457V9.63051H66.1169V8.75582H71.3762V9.63051H69.2474V16.2532ZM75.0076 16.2532V8.75582H76.0093V16.2532H75.0076ZM80.2668 16.2532H79.2651V9.63051H77.1363V8.75582H82.2704V9.63051H80.1416V16.2532H80.2668ZM92.1628 15.2535C91.4115 16.0033 90.5349 16.3781 89.4079 16.3781C88.281 16.3781 87.4044 16.0033 86.6531 15.2535C85.9018 14.5038 85.5261 13.6291 85.5261 12.5045C85.5261 11.3799 85.9018 10.5052 86.6531 9.75547C87.4044 9.00573 88.281 8.63086 89.4079 8.63086C90.5349 8.63086 91.4115 9.00573 92.1628 9.75547C92.9141 10.5052 93.2898 11.3799 93.2898 12.5045C93.2898 13.6291 92.9141 14.5038 92.1628 15.2535ZM87.4044 14.6288C87.9053 15.1286 88.6566 15.5035 89.4079 15.5035C90.1593 15.5035 90.9106 15.2535 91.4115 14.6288C91.9123 14.1289 92.288 13.3792 92.288 12.5045C92.288 11.6298 92.0376 10.8801 91.4115 10.3802C90.9106 9.88042 90.1593 9.50555 89.4079 9.50555C88.6566 9.50555 87.9053 9.75547 87.4044 10.3802C86.9035 10.8801 86.5279 11.6298 86.5279 12.5045C86.5279 13.3792 86.7783 14.1289 87.4044 14.6288ZM94.6672 16.2532V8.75582H95.7942L99.4256 14.6288V8.75582H100.427V16.2532H99.4256L95.5437 10.1303V16.2532H94.6672Z" fill="white"/>
<path d="M85.2744 27.2489C82.2691 27.2489 79.8899 29.4981 79.8899 32.622C79.8899 35.621 82.2691 37.9952 85.2744 37.9952C88.2796 37.9952 90.6588 35.7459 90.6588 32.622C90.6588 29.3732 88.2796 27.2489 85.2744 27.2489ZM85.2744 35.7459C83.6465 35.7459 82.2691 34.3714 82.2691 32.4971C82.2691 30.6227 83.6465 29.2482 85.2744 29.2482C86.9022 29.2482 88.2796 30.4978 88.2796 32.4971C88.2796 34.3714 86.9022 35.7459 85.2744 35.7459ZM73.6289 27.2489C70.6236 27.2489 68.2444 29.4981 68.2444 32.622C68.2444 35.621 70.6236 37.9952 73.6289 37.9952C76.6341 37.9952 79.0133 35.7459 79.0133 32.622C79.0133 29.3732 76.6341 27.2489 73.6289 27.2489ZM73.6289 35.7459C72.001 35.7459 70.6236 34.3714 70.6236 32.4971C70.6236 30.6227 72.001 29.2482 73.6289 29.2482C75.2567 29.2482 76.6342 30.4978 76.6342 32.4971C76.6342 34.3714 75.2567 35.7459 73.6289 35.7459ZM59.7294 28.8734V31.1226H65.1139C64.9887 32.3721 64.4878 33.3718 63.8617 33.9966C63.1103 34.7463 61.8581 35.621 59.7294 35.621C56.3484 35.621 53.844 32.9969 53.844 29.6231C53.844 26.2493 56.4737 23.6252 59.7294 23.6252C61.4825 23.6252 62.8599 24.3749 63.8617 25.2496L65.4895 23.6252C64.1121 22.3756 62.359 21.376 59.8546 21.376C55.3467 21.376 51.4648 25.1247 51.4648 29.6231C51.4648 34.1215 55.3467 37.8702 59.8546 37.8702C62.359 37.8702 64.1121 37.1205 65.6148 35.496C67.1174 33.9966 67.6183 31.8723 67.6183 30.2479C67.6183 29.748 67.6183 29.2482 67.4931 28.8734H59.7294ZM116.579 30.6227C116.079 29.3732 114.826 27.2489 112.072 27.2489C109.317 27.2489 107.063 29.3732 107.063 32.622C107.063 35.621 109.317 37.9952 112.322 37.9952C114.701 37.9952 116.204 36.4957 116.705 35.621L114.952 34.3714C114.326 35.2461 113.574 35.8709 112.322 35.8709C111.07 35.8709 110.318 35.3711 109.692 34.2465L116.83 31.2475L116.579 30.6227ZM109.317 32.3721C109.317 30.3728 110.945 29.2482 112.072 29.2482C112.948 29.2482 113.825 29.748 114.075 30.3728L109.317 32.3721ZM103.431 37.4953H105.811V21.8758H103.431V37.4953ZM99.6747 28.3735C99.0486 27.7487 98.0468 27.124 96.7946 27.124C94.165 27.124 91.6606 29.4981 91.6606 32.4971C91.6606 35.496 94.0398 37.7452 96.7946 37.7452C98.0468 37.7452 99.0486 37.1205 99.5495 36.4957H99.6747V37.2454C99.6747 39.2447 98.5477 40.3693 96.7946 40.3693C95.4172 40.3693 94.4154 39.3697 94.165 38.495L92.1615 39.3697C92.7876 40.7442 94.2902 42.4936 96.9199 42.4936C99.6747 42.4936 101.929 40.8692 101.929 36.9955V27.4988H99.6747V28.3735ZM96.9199 35.7459C95.292 35.7459 93.9146 34.3714 93.9146 32.4971C93.9146 30.6227 95.292 29.2482 96.9199 29.2482C98.5477 29.2482 99.7999 30.6227 99.7999 32.4971C99.7999 34.3714 98.5477 35.7459 96.9199 35.7459ZM127.474 21.8758H121.839V37.4953H124.218V31.6224H127.474C130.103 31.6224 132.608 29.748 132.608 26.7491C132.608 23.7501 130.103 21.8758 127.474 21.8758ZM127.599 29.3732H124.218V24.0001H127.599C129.352 24.0001 130.354 25.4995 130.354 26.6241C130.228 27.9987 129.227 29.3732 127.599 29.3732ZM141.999 27.124C140.246 27.124 138.493 27.8737 137.867 29.4981L139.996 30.3728C140.497 29.4981 141.248 29.2482 142.124 29.2482C143.377 29.2482 144.504 29.998 144.629 31.2475V31.3725C144.253 31.1226 143.251 30.7477 142.25 30.7477C139.996 30.7477 137.742 31.9973 137.742 34.2465C137.742 36.3707 139.62 37.7452 141.624 37.7452C143.251 37.7452 144.003 36.9955 144.629 36.2458H144.754V37.4953H147.008V31.4974C146.758 28.7484 144.629 27.124 141.999 27.124ZM141.749 35.7459C140.997 35.7459 139.87 35.3711 139.87 34.3714C139.87 33.1219 141.248 32.747 142.375 32.747C143.377 32.747 143.878 32.9969 144.504 33.2468C144.253 34.7463 143.001 35.7459 141.749 35.7459ZM154.897 27.4988L152.267 34.2465H152.142L149.387 27.4988H146.883L151.015 36.9955L148.636 42.2437H151.015L157.401 27.4988H154.897ZM133.86 37.4953H136.239V21.8758H133.86V37.4953Z" fill="white"/>
<path d="M13.4923 9C13.1231 9.384 13 10.024 13 10.792V39.08C13 39.848 13.2462 40.488 13.6154 40.872L13.7385 41L29 25.128V24.872L13.4923 9Z" fill="url(#paint0_linear)"/>
<path d="M33.8098 30.3732L28.6758 25.25V24.8752L33.8098 19.752L33.935 19.8769L40.0708 23.3757C41.8239 24.3753 41.8239 25.9998 40.0708 26.9994L33.8098 30.3732Z" fill="url(#paint1_linear)"/>
<path d="M33.9333 30.2482L28.674 25L13.0215 40.6195C13.6476 41.2443 14.5241 41.2443 15.6511 40.7445L33.9333 30.2482Z" fill="url(#paint2_linear)"/>
<path d="M33.9333 19.7519L15.6511 9.38049C14.5241 8.75571 13.6476 8.88066 13.0215 9.50545L28.674 25L33.9333 19.7519Z" fill="url(#paint3_linear)"/>
<path opacity="0.2" d="M33.8081 30.123L15.6511 40.3695C14.6494 40.9942 13.7728 40.8693 13.1467 40.3695L13.0215 40.4944L13.1467 40.6194C13.7728 41.1192 14.6494 41.2442 15.6511 40.6194L33.8081 30.123Z" fill="black"/>
<path opacity="0.2" d="M13.0224 40.3696C12.6467 39.9948 12.5215 39.37 12.5215 38.6202V38.7452C12.5215 39.4949 12.7719 40.1197 13.1476 40.4946V40.3696H13.0224ZM40.07 26.6244L33.809 30.1232L33.9342 30.2482L40.07 26.7494C40.9465 26.2496 41.3222 25.6248 41.3222 25C41.3222 25.6248 40.8213 26.1246 40.07 26.6244Z" fill="black"/>
<path opacity="0.2" d="M15.652 9.50527L40.07 23.3754C40.8213 23.8752 41.3222 24.3751 41.3222 24.9998C41.3222 24.3751 40.9465 23.7503 40.07 23.2505L15.652 9.38031C13.8989 8.38066 12.5215 9.1304 12.5215 11.1297V11.2547C12.5215 9.38031 13.8989 8.50562 15.652 9.50527Z" fill="white"/>
</g>
<defs>
<linearGradient id="paint0_linear" x1="27.5231" y1="10.5488" x2="6.0574" y2="31.1876" gradientUnits="userSpaceOnUse">
<stop stop-color="#00A0FF"/>
<stop offset="0.007" stop-color="#00A1FF"/>
<stop offset="0.26" stop-color="#00BEFF"/>
<stop offset="0.512" stop-color="#00D2FF"/>
<stop offset="0.76" stop-color="#00DFFF"/>
<stop offset="1" stop-color="#00E3FF"/>
</linearGradient>
<linearGradient id="paint1_linear" x1="42.3674" y1="25.0014" x2="12.0678" y2="25.0014" gradientUnits="userSpaceOnUse">
<stop stop-color="#FFE000"/>
<stop offset="0.409" stop-color="#FFBD00"/>
<stop offset="0.775" stop-color="#FFA500"/>
<stop offset="1" stop-color="#FF9C00"/>
</linearGradient>
<linearGradient id="paint2_linear" x1="31.087" y1="27.869" x2="2.64955" y2="56.3666" gradientUnits="userSpaceOnUse">
<stop stop-color="#FF3A44"/>
<stop offset="1" stop-color="#C31162"/>
</linearGradient>
<linearGradient id="paint3_linear" x1="9.13589" y1="0.228697" x2="21.8352" y2="12.9548" gradientUnits="userSpaceOnUse">
<stop stop-color="#32A071"/>
<stop offset="0.069" stop-color="#2DA771"/>
<stop offset="0.476" stop-color="#15CF74"/>
<stop offset="0.801" stop-color="#06E775"/>
<stop offset="1" stop-color="#00F076"/>
</linearGradient>
<clipPath id="clip0">
<rect width="169.048" height="50" fill="white"/>
</clipPath>
</defs>
</svg>