<?xml version="1.0" encoding="UTF-8"?>
<!DOCTYPE svg PUBLIC "-//W3C//DTD SVG 1.1//EN" "http://www.w3.org/Graphics/SVG/1.1/DTD/svg11.dtd">
<!-- Creator: CorelDRAW 2020 (64-Bit Evaluation Version) -->
<svg xmlns="http://www.w3.org/2000/svg" xml:space="preserve" width="4.56959in" height="0.734417in" version="1.1" style="shape-rendering:geometricPrecision; text-rendering:geometricPrecision; image-rendering:optimizeQuality; fill-rule:evenodd; clip-rule:evenodd"
viewBox="0 0 4563.98 733.52"
 xmlns:xlink="http://www.w3.org/1999/xlink"
 xmlns:xodm="http://www.corel.com/coreldraw/odm/2003">
 <defs>
  <style type="text/css">
   <![CDATA[
    .fil0 {fill:#014278}
    .fil1 {fill:#014278;fill-rule:nonzero}
   ]]>
  </style>
 </defs>
 <g id="Layer_x0020_1">
  <metadata id="CorelCorpID_0Corel-Layer"/>
  <g id="_2193474291904">
   <path class="fil0" d="M-0 0l452.18 0c104.04,0 189.16,85.12 189.16,189.16 0,104.04 -85.12,189.16 -189.16,189.16l-165.74 0 95.48 34.23 0 154.93 -190.96 0 0 -344.09 225.19 0c18.83,0 34.23,-15.4 34.23,-34.23 0,-18.83 -15.4,-34.23 -34.23,-34.23l-416.15 0 0 -154.93z"/>
   <g>
    <path class="fil1" d="M1096.81 105.55c32.68,0 59.96,5.27 81.83,15.81 21.88,10.54 39.53,24.51 52.97,41.91 13.44,17.38 23.06,37.02 28.86,58.89 5.79,21.88 8.69,44.15 8.69,66.81 0,22.14 -2.91,44.14 -8.69,66.02 -5.8,21.87 -15.42,41.51 -28.86,58.89 -13.44,17.4 -31.1,31.5 -52.97,42.3 -21.87,10.8 -49.14,16.21 -81.83,16.21l-171.55 0 0 95.09 -82.23 0 0 -461.93 253.78 0zm-171.55 290.15l188.95 0c13.71,0 25.17,-3.17 34.39,-9.49 9.23,-6.32 16.61,-14.62 22.14,-24.9 5.53,-10.28 9.62,-21.74 12.25,-34.39 2.63,-12.65 3.95,-25.3 3.95,-37.95 0,-12.12 -1.32,-24.51 -3.95,-37.16 -2.63,-12.65 -6.98,-24.11 -13.04,-34.39 -6.06,-10.27 -13.97,-18.58 -23.72,-24.91 -9.75,-6.32 -21.74,-9.48 -35.97,-9.48l-185 0 0 212.68z"/>
    <path class="fil1" d="M1283.48 406.28c0,-10.79 1.23,-20.96 3.68,-30.5 2.46,-9.56 6.15,-18.44 11.05,-26.62 4.86,-8.09 10.5,-15.72 16.9,-22.87 6.39,-7.13 13.56,-13.8 21.49,-19.98 7.91,-6.16 16.38,-11.86 25.41,-17.07 9,-5.2 18.59,-9.94 28.74,-14.22 10.12,-4.26 20.33,-8.21 30.6,-11.83 10.4,-3.66 20.9,-7.03 31.46,-10.06 10.55,-3.03 21.04,-5.79 31.47,-8.25 10.29,-2.43 20.61,-4.58 30.93,-6.46 10.64,-1.93 20.33,-3.66 28.98,-5.15 7.8,-1.34 15.49,-2.64 23.1,-3.87l0 -5.75c0,-14.29 -2.99,-22.72 -8.95,-25.28 -3.46,-1.48 -7.35,-2.59 -11.67,-3.33 -4.4,-0.75 -9.28,-1.13 -14.64,-1.13l-230.37 0 0 -77.3 252.5 0c23.7,0 42.12,3.15 55.25,9.45 6.63,3.17 12.39,7 17.25,11.43 4.9,4.47 8.89,9.59 11.98,15.35 3.04,5.63 5.45,11.82 7.22,18.54 1.77,6.67 2.93,13.88 3.46,21.59 0.52,7.44 0.92,15.36 1.19,23.74 0.27,8.47 0.41,17.12 0.41,25.91l0 180.26c0,4.02 0.27,7.35 0.81,9.98 0.49,2.39 1.17,4.17 2.04,5.33 0.75,0.98 2.05,1.77 3.9,2.33 2.21,0.68 5.14,1.03 8.76,1.03l34.3 0 0 77.29 -70.67 0c-7.02,0 -13.36,-0.52 -19,-1.55 -5.71,-1.05 -10.71,-2.64 -14.95,-4.75 -4.19,-2.08 -7.91,-4.47 -11.14,-7.14 -3.28,-2.71 -6.07,-5.71 -8.36,-9 -2.26,-3.26 -4.1,-6.62 -5.5,-10.07 -1.41,-3.47 -2.41,-7.07 -2.98,-10.77 -0.54,-3.51 -0.95,-6.81 -1.22,-9.9 -0.27,-3.11 -0.41,-6.05 -0.41,-8.79l0 -6.92c-1.96,4.35 -4.31,8.72 -7.03,13.09 -3.78,6.08 -8.23,11.89 -13.35,17.42 -5.1,5.5 -10.81,10.68 -17.14,15.52 -6.34,4.86 -13.18,9.28 -20.52,13.25 -7.32,3.96 -15.15,7.5 -23.46,10.58 -8.34,3.1 -17.13,5.43 -26.33,6.98 -9.17,1.55 -18.73,2.33 -28.64,2.33 -9.12,0 -18.16,-0.68 -27.1,-2.02 -8.89,-1.34 -17.73,-3.36 -26.49,-6.05 -8.78,-2.7 -17.08,-6.04 -24.86,-10 -7.82,-3.98 -15.19,-8.62 -22.08,-13.88 -6.9,-5.27 -13.13,-11.14 -18.69,-17.58 -5.55,-6.43 -10.44,-13.46 -14.64,-21.04 -4.24,-7.67 -7.42,-15.87 -9.53,-24.59 -2.11,-8.73 -3.17,-17.97 -3.17,-27.69zm89.15 -6.32c0,7.12 2,13.28 5.99,18.44 2.09,2.7 4.43,5.17 7.02,7.39 2.58,2.21 5.44,4.2 8.54,5.93 3.15,1.76 6.48,3.31 9.98,4.62 3.52,1.33 7.27,2.44 11.21,3.33 3.92,0.88 7.79,1.56 11.57,2 3.75,0.44 7.42,0.66 11,0.66 7.71,0 15.39,-0.8 23.03,-2.39 7.67,-1.6 15.37,-4 23.07,-7.22 7.76,-3.24 15.1,-6.92 21.99,-11.04 6.87,-4.11 13.35,-8.69 19.43,-13.73 6.04,-5 11.55,-10.35 16.52,-16.03 4.93,-5.64 9.33,-11.62 13.18,-17.9 3.79,-6.19 6.65,-12.31 8.54,-18.31 1.86,-5.91 2.8,-11.73 2.8,-17.44l0 -37.72 -10.44 2.11 -17.76 3.8c-6.53,1.44 -13.28,3.05 -20.25,4.82 -6.91,1.76 -14.07,3.7 -21.45,5.81 -7.43,2.12 -14.81,4.38 -22.12,6.78 -7.35,2.41 -14.79,5 -22.31,7.77 -7.4,2.72 -14.46,5.66 -21.17,8.78 -6.75,3.15 -13.09,6.46 -18.98,9.92 -5.92,3.47 -11.29,7.14 -16.09,10.98 -4.76,3.81 -9,7.83 -12.69,12.03 -3.56,4.06 -6.24,8.31 -7.99,12.74 -1.74,4.38 -2.61,9 -2.61,13.85z"/>
    <path class="fil1" d="M1700.73 322.47c0,-15.38 0.94,-30.25 2.81,-44.62 1.87,-14.35 4.68,-28.13 8.4,-41.3 7.51,-26.58 19.76,-49.57 36.7,-68.93 8.47,-9.69 18.18,-18.34 29.09,-25.96 10.88,-7.59 22.97,-14.14 36.24,-19.64 13.29,-5.51 27.94,-9.63 43.92,-12.37 15.96,-2.74 33.25,-4.11 51.87,-4.11 13.06,0 25.38,0.84 36.95,2.51 11.57,1.67 22.41,4.2 32.51,7.56 10.07,3.35 19.5,7.32 28.28,11.87 8.81,4.58 16.99,9.76 24.52,15.54 7.55,5.79 14.53,12.17 20.91,19.08 6.37,6.91 12.19,14.42 17.45,22.5 5.21,8 9.99,16.36 14.33,25.04 4.37,8.74 8.29,17.76 11.73,27.02l1.73 4.68 -82.87 0 -1.01 -1.73c-5.4,-9.26 -11.34,-17.43 -17.83,-24.49 -6.45,-7.03 -13.45,-12.97 -20.96,-17.81 -7.44,-4.79 -16.27,-8.4 -26.49,-10.8 -10.34,-2.44 -22.11,-3.66 -35.29,-3.66 -23.78,0 -43.88,3.59 -60.29,10.77 -8.18,3.58 -15.61,7.83 -22.24,12.75 -6.62,4.9 -12.48,10.48 -17.57,16.71 -5.09,6.23 -9.5,13.01 -13.22,20.33 -3.73,7.33 -6.75,15.16 -9.05,23.48 -2.33,8.41 -4.08,17.12 -5.24,26.09 -1.16,8.95 -1.74,18.26 -1.74,27.93 0,18.66 2.32,35.87 6.96,51.6 2.29,7.77 5.34,15.1 9.11,21.94 3.76,6.81 8.26,13.16 13.49,19.03 5.23,5.87 11.21,11.09 17.93,15.65 6.76,4.59 14.32,8.56 22.67,11.9 8.34,3.33 17.55,5.84 27.63,7.51 10.11,1.68 21.17,2.52 33.14,2.52 4.68,0 9.5,-0.2 14.47,-0.58 4.99,-0.39 10.16,-0.98 15.47,-1.75 5.23,-0.76 10.42,-1.92 15.52,-3.45 5.12,-1.53 10.19,-3.46 15.16,-5.75 4.97,-2.3 9.78,-5.06 14.4,-8.29 4.64,-3.25 9.15,-6.99 13.5,-11.2 4.28,-4.15 8.28,-9.02 11.98,-14.57 3.74,-5.6 7.14,-11.85 10.2,-18.74l0.92 -2.07 84.68 0 -1.7 4.66c-3.98,10.87 -8.35,21.19 -13.09,30.94 -4.75,9.76 -9.86,18.91 -15.32,27.44 -5.52,8.62 -11.61,16.6 -18.24,23.9 -6.64,7.31 -13.88,14 -21.7,20.07 -7.82,6.07 -16.35,11.43 -25.56,16.06 -9.18,4.62 -19.09,8.55 -29.71,11.78 -10.6,3.22 -22.09,5.63 -34.45,7.24 -12.41,1.6 -25.63,2.41 -39.68,2.41 -19.14,0 -36.85,-1.23 -53.09,-3.7 -16.29,-2.47 -31.15,-6.19 -44.56,-11.15 -13.4,-4.95 -25.59,-10.97 -36.55,-18.03 -10.96,-7.06 -20.71,-15.19 -29.22,-24.38 -8.5,-9.16 -15.82,-19.21 -21.93,-30.1 -6.12,-10.9 -11.07,-22.67 -14.82,-35.3 -3.74,-12.54 -6.55,-25.83 -8.42,-39.87 -1.87,-14.03 -2.81,-28.74 -2.81,-44.13z"/>
    <path class="fil1" d="M2130.21 321.69c0,-30.88 3.74,-59.53 11.2,-85.93 3.75,-13.25 8.69,-25.64 14.82,-37.15 6.09,-11.49 13.4,-22.09 21.89,-31.79 8.5,-9.71 18.28,-18.35 29.32,-25.89 11.03,-7.53 23.31,-13.98 36.84,-19.33 13.51,-5.35 28.48,-9.37 44.9,-12.05 16.36,-2.67 34.11,-4.01 53.23,-4.01 16.57,0 32.08,1.58 46.49,4.73 14.45,3.16 27.83,7.91 40.09,14.25 12.23,6.31 23.35,13.68 33.35,22.07 10.01,8.4 18.93,17.86 26.73,28.36 7.79,10.48 14.47,21.75 20.04,33.82 5.55,12.04 10.01,24.91 13.36,38.58 3.35,13.65 5.52,27.62 6.52,41.89 1,14.23 0.83,28.84 -0.51,43.82l-0.28 3.17 -313.29 0c1.49,17.87 5.05,33.71 10.65,47.51 5.94,14.63 14.2,26.99 24.76,37.03 10.56,10.05 23.66,17.6 39.29,22.64 15.77,5.08 34.17,7.63 55.17,7.63 4.68,0 9.5,-0.2 14.47,-0.58 4.99,-0.39 10.16,-0.98 15.47,-1.75 5.24,-0.77 10.42,-1.92 15.53,-3.45 5.11,-1.53 10.17,-3.45 15.14,-5.74 4.97,-2.29 9.78,-5.06 14.4,-8.29 4.65,-3.24 9.15,-6.98 13.51,-11.21 4.29,-4.17 8.29,-9.03 11.98,-14.57 3.73,-5.6 7.14,-11.86 10.2,-18.74l0.92 -2.07 84.57 0 -1.57 4.58c-3.73,10.92 -7.9,21.26 -12.5,31 -4.61,9.75 -9.66,18.91 -15.15,27.46 -5.51,8.6 -11.63,16.57 -18.35,23.9 -6.72,7.33 -14.05,14.02 -21.99,20.08 -7.96,6.08 -16.59,11.43 -25.85,16.06 -9.27,4.62 -19.2,8.55 -29.8,11.77 -10.59,3.22 -22.02,5.63 -34.26,7.24 -12.26,1.6 -25.29,2.41 -39.09,2.41 -18.04,0 -34.95,-1.24 -50.73,-3.71 -15.81,-2.48 -30.4,-6.19 -43.76,-11.14 -13.39,-4.95 -25.64,-10.93 -36.72,-17.91 -11.09,-7 -21.03,-15.01 -29.79,-24.04 -8.75,-9.02 -16.37,-19.04 -22.84,-30.02 -6.46,-10.96 -11.77,-22.89 -15.93,-35.77 -4.15,-12.85 -7.26,-26.35 -9.32,-40.47 -2.07,-14.14 -3.1,-28.95 -3.1,-44.39zm90.34 -62.77l224.73 0c-1.29,-9.95 -4.1,-19.15 -8.42,-27.58 -4.86,-9.48 -11.68,-18.03 -20.43,-25.63 -8.71,-7.57 -19.9,-13.27 -33.54,-17.07 -13.84,-3.86 -30.24,-5.79 -49.18,-5.79 -17.88,0 -33.68,1.93 -47.39,5.79 -13.58,3.82 -25.14,9.55 -34.64,17.16 -9.52,7.6 -16.91,16.16 -22.16,25.65 -4.67,8.41 -7.65,17.57 -8.97,27.48z"/>
    <path class="fil1" d="M2640.09 384.63c1,3.8 2.09,7.42 3.26,10.84 2.05,6.02 4.36,11.47 6.9,16.31 2.51,4.77 5.43,9.08 8.75,12.89 3.3,3.8 7.02,7.14 11.12,10 4.11,2.87 8.76,5.35 13.93,7.42 5.23,2.1 10.97,3.8 17.2,5.07 6.25,1.28 13.33,2.25 21.24,2.9 7.88,0.64 16.52,0.98 25.91,0.98 16.95,0 31.83,-0.98 44.63,-2.93 12.69,-1.93 23.31,-4.81 31.82,-8.62 8.25,-3.7 14.41,-8.39 18.46,-14.07 3.98,-5.58 5.97,-12.23 5.97,-19.94 0,-3.41 -0.39,-6.57 -1.16,-9.49 -0.77,-2.89 -1.92,-5.59 -3.45,-8.06 -1.51,-2.45 -3.62,-4.81 -6.3,-7.08 -2.76,-2.33 -6.15,-4.57 -10.17,-6.7 -4.06,-2.15 -8.78,-4.16 -14.14,-6.01 -5.45,-1.88 -11.53,-3.59 -18.21,-5.13 -6.78,-1.57 -14.38,-3.07 -22.77,-4.52 -8.45,-1.45 -17.62,-2.84 -27.51,-4.13 -10.11,-1.33 -20.16,-2.85 -30.13,-4.55 -10,-1.71 -20.08,-3.64 -30.21,-5.76 -10.15,-2.14 -19.8,-4.85 -28.92,-8.14 -9.17,-3.3 -17.78,-7.17 -25.8,-11.58 -8.14,-4.48 -15.56,-9.78 -22.22,-15.9 -6.66,-6.11 -12.58,-13.05 -17.74,-20.8 -5.22,-7.83 -9.14,-16.86 -11.74,-27.05 -2.58,-10.09 -3.87,-21.35 -3.87,-33.75 0,-19.74 3.5,-37.19 10.51,-52.35 7.03,-15.22 17.58,-28.09 31.61,-38.58 13.94,-10.42 31.52,-18.22 52.75,-23.41 21.05,-5.14 45.66,-7.72 73.84,-7.72 13.53,0 26.05,0.67 37.53,2.01 11.54,1.34 22.02,3.36 31.41,6.04 9.43,2.7 18.17,6.22 26.2,10.58 8.01,4.33 15.3,9.52 21.84,15.52 6.5,5.96 12.44,12.85 17.8,20.65 5.34,7.77 10.1,16.44 14.26,25.97 4.14,9.49 7.92,20.01 11.31,31.53 3.4,11.54 6.43,24.07 9.08,37.57l0.81 4.13 -81.33 0 -0.59 -2.75c-1.57,-7.32 -3.26,-13.96 -5.06,-19.88 -1.8,-5.93 -3.73,-11.21 -5.77,-15.8 -2.01,-4.51 -4.34,-8.59 -6.97,-12.23 -2.6,-3.59 -5.51,-6.75 -8.71,-9.45 -3.22,-2.72 -6.85,-5.09 -10.86,-7.06 -4.05,-1.99 -8.55,-3.63 -13.46,-4.88 -5,-1.28 -10.7,-2.31 -17.07,-3.09 -6.44,-0.78 -13.52,-1.31 -21.21,-1.56l-11.07 0.01c-14.01,0 -26.11,1 -36.3,3 -10.01,1.96 -18.13,4.88 -24.34,8.73 -6.1,3.78 -10.66,8.23 -13.66,13.33 -2.97,5.05 -4.46,10.83 -4.46,17.33 0,6.91 1.84,13.01 5.51,18.27 3.76,5.39 9.45,10 17.08,13.81 7.91,3.96 19.13,7.59 33.62,10.89 14.59,3.32 32.54,6.3 53.81,8.92 9.01,1.06 18.15,2.39 27.43,3.98 9.17,1.57 18.59,3.43 28.22,5.57 9.67,2.15 18.93,4.9 27.75,8.24 8.86,3.35 17.34,7.33 25.39,11.89 8.14,4.61 15.57,10 22.27,16.16 6.72,6.17 12.72,13.14 18.01,20.86 5.36,7.83 9.38,16.87 12.05,27.07 2.65,10.13 3.98,21.39 3.98,33.78 0,20.27 -3.74,38.17 -11.22,53.69 -7.5,15.56 -18.75,28.65 -33.72,39.26 -14.85,10.53 -32.85,18.42 -53.96,23.66 -20.98,5.21 -45.04,7.82 -72.18,7.82 -14.82,0 -28.75,-0.5 -41.76,-1.49 -13.04,-0.99 -25.16,-2.5 -36.33,-4.49 -11.28,-2.01 -21.81,-4.94 -31.57,-8.78 -9.8,-3.85 -18.85,-8.63 -27.11,-14.32 -8.29,-5.71 -15.79,-12.46 -22.49,-20.25 -6.7,-7.78 -12.62,-16.61 -17.75,-26.46 -5.09,-9.8 -9.53,-21.05 -13.28,-33.73 -3.08,-10.4 -5.71,-21.8 -7.88,-34.19l81.19 0z"/>
    <path class="fil1" d="M2946.1 321.69c0,-30.88 3.74,-59.53 11.2,-85.93 7.52,-26.59 19.77,-49.57 36.71,-68.93 8.49,-9.71 18.27,-18.35 29.31,-25.89 11.02,-7.53 23.31,-13.98 36.84,-19.33 13.51,-5.35 28.48,-9.37 44.9,-12.05 16.36,-2.67 34.11,-4.01 53.23,-4.01 16.57,0 32.08,1.58 46.49,4.73 14.45,3.16 27.82,7.91 40.08,14.25 12.23,6.31 23.35,13.68 33.35,22.07 10.01,8.4 18.93,17.86 26.73,28.36 7.79,10.48 14.47,21.75 20.04,33.82 5.55,12.04 10,24.9 13.35,38.57 3.35,13.64 5.53,27.62 6.53,41.9 0.99,14.23 0.82,28.84 -0.51,43.82l-0.28 3.17 -313.29 0c1.49,17.86 5.05,33.71 10.65,47.51 5.95,14.63 14.2,26.99 24.76,37.04 10.56,10.05 23.66,17.6 39.29,22.64 15.77,5.08 34.17,7.63 55.18,7.63 4.67,0 9.5,-0.2 14.46,-0.58 4.99,-0.39 10.16,-0.98 15.48,-1.75 5.24,-0.77 10.42,-1.92 15.53,-3.45 5.12,-1.53 10.17,-3.45 15.14,-5.74 4.97,-2.29 9.78,-5.06 14.4,-8.29 4.65,-3.24 9.15,-6.98 13.51,-11.21 4.29,-4.17 8.29,-9.03 11.98,-14.57 3.73,-5.6 7.14,-11.86 10.2,-18.74l0.92 -2.07 84.57 0 -1.57 4.58c-3.73,10.92 -7.9,21.26 -12.5,31 -4.61,9.75 -9.66,18.91 -15.15,27.46 -5.51,8.6 -11.63,16.57 -18.35,23.9 -6.72,7.33 -14.05,14.02 -21.99,20.08 -7.96,6.08 -16.59,11.43 -25.85,16.06 -9.27,4.62 -19.2,8.55 -29.8,11.77 -10.59,3.22 -22.02,5.63 -34.26,7.24 -12.26,1.6 -25.29,2.41 -39.09,2.41 -18.04,0 -34.95,-1.24 -50.73,-3.71 -15.81,-2.48 -30.4,-6.19 -43.76,-11.14 -13.39,-4.95 -25.63,-10.93 -36.72,-17.91 -11.09,-7 -21.03,-15.01 -29.79,-24.04 -8.75,-9.02 -16.37,-19.04 -22.84,-30.02 -6.45,-10.96 -11.77,-22.89 -15.92,-35.77 -4.15,-12.85 -7.27,-26.36 -9.33,-40.47 -2.06,-14.14 -3.1,-28.94 -3.1,-44.38zm90.34 -62.77l224.73 0c-1.28,-9.95 -4.09,-19.14 -8.42,-27.58 -4.86,-9.48 -11.68,-18.03 -20.43,-25.63 -8.72,-7.57 -19.9,-13.27 -33.54,-17.07 -13.84,-3.86 -30.24,-5.79 -49.18,-5.79 -17.88,0 -33.68,1.93 -47.39,5.79 -13.59,3.83 -25.15,9.55 -34.65,17.16 -9.53,7.62 -16.92,16.17 -22.16,25.65 -4.65,8.4 -7.63,17.57 -8.95,27.48z"/>
    <path class="fil1" d="M3403.48 91.31l0 -91.31 85.21 0 0 91.31 96.45 0 0 78.09 -96.45 0 0 261.39c0,2.51 0.27,4.55 0.8,6.09 1.61,4.71 8.23,4.68 12.34,4.68l90.43 0 0 77.29 -99.13 0c-14.07,0 -26.61,-1.91 -37.6,-5.74 -11.1,-3.86 -20.59,-9.67 -28.47,-17.4 -7.88,-7.74 -13.8,-17.22 -17.74,-28.41 -3.89,-11.05 -5.84,-23.76 -5.84,-38.1l0 -259.8 -46.64 0 0 -78.09 46.64 0z"/>
    <path class="fil1" d="M3662.39 91.31l0 -91.31 85.21 0 0 91.31 96.45 0 0 78.09 -96.45 0 0 261.39c0,9.92 4.34,10.76 13.13,10.76l90.43 0 0 77.29 -99.13 0c-14.07,0 -26.61,-1.91 -37.6,-5.74 -11.1,-3.86 -20.59,-9.66 -28.47,-17.4 -7.88,-7.74 -13.8,-17.22 -17.73,-28.41 -3.89,-11.05 -5.84,-23.76 -5.84,-38.1l0 -259.8 -46.64 0 0 -78.09 46.64 0z"/>
    <path class="fil1" d="M3857.45 321.69c0,-30.88 3.74,-59.53 11.2,-85.93 3.77,-13.29 8.71,-25.69 14.8,-37.16 6.14,-11.51 13.44,-22.11 21.91,-31.78 8.49,-9.71 18.27,-18.35 29.31,-25.89 11.02,-7.53 23.31,-13.98 36.84,-19.33 13.51,-5.35 28.49,-9.37 44.9,-12.05 16.36,-2.67 34.11,-4.01 53.23,-4.01 16.57,0 32.08,1.58 46.49,4.73 14.45,3.16 27.82,7.91 40.08,14.25 12.22,6.31 23.35,13.67 33.35,22.06 10.01,8.4 18.93,17.86 26.73,28.37 7.79,10.48 14.47,21.76 20.04,33.82 5.55,12.04 10,24.9 13.35,38.57 3.35,13.64 5.53,27.62 6.53,41.9 0.99,14.23 0.82,28.84 -0.51,43.82l-0.28 3.17 -313.29 0c1.49,17.86 5.05,33.71 10.65,47.51 5.94,14.63 14.2,26.99 24.76,37.03 21.2,20.18 52.69,30.27 94.47,30.27 4.68,0 9.5,-0.2 14.47,-0.58 4.99,-0.39 10.16,-0.98 15.47,-1.75 5.24,-0.77 10.42,-1.92 15.53,-3.45 5.12,-1.53 10.17,-3.45 15.13,-5.74 4.97,-2.29 9.78,-5.06 14.4,-8.29 4.65,-3.24 9.15,-6.98 13.51,-11.21 4.29,-4.17 8.29,-9.04 11.98,-14.57 3.72,-5.58 7.13,-11.82 10.19,-18.74l0.92 -2.07 84.57 0 -1.57 4.58c-3.73,10.92 -7.91,21.26 -12.51,31 -4.6,9.75 -9.66,18.91 -15.14,27.46 -5.51,8.6 -11.63,16.58 -18.35,23.91 -6.71,7.31 -14.05,14.01 -21.99,20.07 -7.96,6.08 -16.59,11.43 -25.85,16.06 -9.26,4.62 -19.2,8.55 -29.79,11.77 -10.59,3.22 -22.02,5.63 -34.26,7.24 -12.26,1.6 -25.29,2.41 -39.09,2.41 -18.04,0 -34.95,-1.24 -50.73,-3.71 -15.81,-2.48 -30.4,-6.19 -43.76,-11.14 -13.39,-4.95 -25.64,-10.93 -36.72,-17.91 -11.1,-7 -21.03,-15.01 -29.79,-24.04 -8.75,-9.02 -16.37,-19.04 -22.84,-30.02 -6.46,-10.96 -11.77,-22.89 -15.93,-35.77 -4.15,-12.85 -7.27,-26.36 -9.33,-40.47 -2.06,-14.14 -3.1,-28.94 -3.1,-44.38zm90.34 -62.77l224.73 0c-1.29,-9.95 -4.1,-19.15 -8.42,-27.58 -4.86,-9.48 -11.68,-18.03 -20.43,-25.63 -8.71,-7.57 -19.9,-13.27 -33.54,-17.07 -13.84,-3.86 -30.24,-5.79 -49.18,-5.79 -17.88,0 -33.68,1.93 -47.39,5.79 -13.59,3.83 -25.15,9.55 -34.65,17.16 -9.53,7.62 -16.92,16.17 -22.16,25.65 -4.65,8.4 -7.63,17.56 -8.95,27.48z"/>
    <path class="fil1" d="M4381.84 116.61l182.15 0 0 77.3 -165.54 0c-5.76,0 -10.27,0.16 -13.51,0.47 -2.87,0.27 -4.62,0.6 -5.2,0.97 -0.32,0.21 -0.63,0.78 -0.9,1.7 -0.42,1.44 -0.64,3.46 -0.64,6.04l0 314.96 -84.41 0 0 -314.17c0,-6.15 0.38,-12.12 1.12,-17.92 0.75,-5.8 1.88,-11.35 3.36,-16.61 1.52,-5.38 3.52,-10.39 6.02,-15.03 2.5,-4.63 5.49,-8.91 8.97,-12.81 3.46,-3.89 7.51,-7.38 12.12,-10.46 4.57,-3.05 9.68,-5.67 15.3,-7.86 5.61,-2.19 11.89,-3.85 18.8,-4.94 6.88,-1.09 14.35,-1.64 22.38,-1.64z"/>
   </g>
   <g>
    <path class="fil1" d="M2593.63 703.1l0 -10.2 33.45 0 0 28.73 -0.78 0.63c-2.33,1.85 -4.7,3.49 -7.11,4.88 -2.41,1.4 -4.88,2.59 -7.38,3.53 -2.5,0.94 -5.05,1.66 -7.63,2.13 -2.59,0.48 -5.21,0.72 -7.84,0.72 -3.56,0 -6.96,-0.38 -10.21,-1.14 -3.25,-0.76 -6.35,-1.92 -9.3,-3.46 -2.96,-1.56 -5.58,-3.46 -7.81,-5.71 -2.25,-2.25 -4.13,-4.85 -5.64,-7.8 -1.51,-2.91 -2.63,-6 -3.37,-9.23 -0.74,-3.23 -1.12,-6.63 -1.12,-10.18 0,-3.5 0.37,-6.91 1.11,-10.22 0.74,-3.3 1.85,-6.5 3.33,-9.56 1.5,-3.11 3.34,-5.83 5.5,-8.14 2.17,-2.32 4.69,-4.26 7.55,-5.78 2.82,-1.51 5.83,-2.64 9.04,-3.39 3.2,-0.74 6.61,-1.12 10.22,-1.12 2.62,0 5.13,0.22 7.51,0.64 2.41,0.44 4.69,1.09 6.83,1.95 2.17,0.87 4.14,1.93 5.86,3.15 1.74,1.23 3.25,2.66 4.51,4.25 1.25,1.58 2.36,3.4 3.3,5.44 0.93,2.03 1.71,4.26 2.33,6.68l0.5 1.97 -12.19 3.32 -0.57 -1.93c-0.5,-1.66 -1.05,-3.15 -1.64,-4.44 -0.59,-1.26 -1.23,-2.35 -1.9,-3.24 -0.64,-0.83 -1.44,-1.6 -2.38,-2.29 -0.97,-0.71 -2.1,-1.34 -3.38,-1.88 -1.3,-0.54 -2.67,-0.96 -4.12,-1.24 -1.44,-0.27 -2.98,-0.41 -4.61,-0.41 -1.96,0 -3.79,0.15 -5.47,0.45 -1.66,0.29 -3.2,0.74 -4.58,1.31 -1.4,0.59 -2.65,1.25 -3.75,2.01 -1.09,0.75 -2.06,1.59 -2.89,2.51 -0.86,0.95 -1.62,1.96 -2.28,3 -0.66,1.05 -1.23,2.14 -1.69,3.24 -0.82,2.03 -1.45,4.14 -1.86,6.32 -0.41,2.19 -0.63,4.48 -0.63,6.87 0,2.97 0.25,5.68 0.75,8.12 0.49,2.4 1.23,4.58 2.2,6.5 0.96,1.87 2.14,3.52 3.53,4.92 1.38,1.38 2.99,2.52 4.82,3.43 1.87,0.94 3.82,1.64 5.82,2.11 1.99,0.47 4.07,0.71 6.19,0.71 1.84,0 3.66,-0.18 5.46,-0.54 1.82,-0.36 3.61,-0.9 5.37,-1.62 1.76,-0.71 3.34,-1.47 4.72,-2.26 0.98,-0.56 1.84,-1.13 2.56,-1.7l0 -9.96 -20.32 0 0 -2.07zm54.68 27.18l0 -71.34 13.33 0 0 73.41 -13.33 0 0 -2.07zm36.1 0l0 -71.34 50.87 0 0 12.27 -37.54 0 0 17.43 32.5 0 0 12.27 -32.5 0 0 31.44 -13.34 0 0 -2.07zm86.51 0l0 -59.07 -22.83 0 0 -12.27 59 0 0 12.27 -22.83 0 0 61.15 -13.34 0 0 -2.07zm103.69 -26.3l11.2 2.82 -0.5 2c-1.01,3.98 -2.43,7.48 -4.25,10.51 -1.85,3.06 -4.13,5.67 -6.83,7.81 -2.69,2.13 -5.68,3.73 -8.95,4.79 -3.26,1.06 -6.8,1.59 -10.61,1.59 -3.88,0 -7.43,-0.4 -10.64,-1.2 -3.25,-0.81 -6.15,-2.05 -8.68,-3.7 -2.52,-1.64 -4.75,-3.65 -6.65,-5.99 -1.89,-2.35 -3.49,-5.07 -4.79,-8.13 -1.28,-3.02 -2.24,-6.15 -2.87,-9.37 -0.64,-3.22 -0.96,-6.55 -0.96,-9.99 0,-3.75 0.37,-7.27 1.08,-10.56 0.72,-3.3 1.82,-6.39 3.28,-9.24 1.47,-2.87 3.26,-5.39 5.36,-7.58 2.1,-2.19 4.53,-4.05 7.25,-5.53 2.68,-1.47 5.52,-2.59 8.49,-3.32 2.97,-0.74 6.07,-1.11 9.27,-1.11 3.67,0 7.06,0.47 10.17,1.41 3.13,0.96 5.98,2.39 8.53,4.29 2.54,1.9 4.72,4.2 6.5,6.88 1.75,2.64 3.13,5.67 4.12,9.07l0.6 2.09 -12.98 3.07 -0.58 -1.83c-0.74,-2.34 -1.65,-4.36 -2.72,-6.04 -1.03,-1.63 -2.22,-2.94 -3.53,-3.93 -1.34,-1 -2.85,-1.76 -4.52,-2.26 -1.71,-0.51 -3.64,-0.77 -5.76,-0.77 -4.86,0 -8.92,1.15 -12.12,3.43 -1.6,1.16 -2.98,2.5 -4.09,4.03 -1.13,1.54 -2.03,3.29 -2.67,5.22 -0.68,2.03 -1.21,4.12 -1.55,6.23 -0.34,2.08 -0.51,4.23 -0.51,6.41 0,5.64 0.81,10.54 2.41,14.67 0.77,1.98 1.77,3.72 2.96,5.2 1.17,1.44 2.56,2.65 4.16,3.62 1.66,1 3.37,1.75 5.12,2.23 1.75,0.48 3.6,0.73 5.53,0.73 2.34,0 4.49,-0.34 6.43,-1 1.92,-0.65 3.68,-1.64 5.25,-2.95 1.58,-1.32 2.9,-2.96 3.97,-4.92 1.1,-2.01 1.95,-4.38 2.53,-7.12l0.45 -2.1 2.08 0.53zm20.78 25.57l27.08 -70.61 12.89 0 29.88 73.41 -14.93 0 -8.01 -20.99 -26.28 0 -7.51 20.99 -14.2 0 1.08 -2.81zm24.84 -29.78l17.64 0 -6.17 -16.41 -2.77 -7.69c-0.63,2.17 -1.35,4.36 -2.14,6.54l-6.56 17.56zm57.63 30.51l0 -71.34 32.77 0c3.14,0 5.95,0.17 8.4,0.49 2.52,0.33 4.66,0.85 6.42,1.53 1.82,0.7 3.48,1.68 4.93,2.93 1.44,1.23 2.71,2.74 3.78,4.5 1.05,1.73 1.85,3.56 2.38,5.5 0.53,1.93 0.8,3.94 0.8,6.01 0,2.7 -0.45,5.21 -1.34,7.52 -0.88,2.33 -2.23,4.44 -4,6.33 -1.77,1.89 -4.03,3.43 -6.74,4.6 -1.17,0.51 -2.43,0.96 -3.77,1.34l1.2 0.97c1.43,1.33 2.81,2.78 4.12,4.37 1.3,1.58 2.58,3.34 3.81,5.27l14.01 22.05 -16.35 0 -9.77 -15.37c-1.23,-1.96 -2.42,-3.74 -3.52,-5.34 -1.13,-1.64 -2.12,-3 -2.95,-4.05 -0.82,-1.03 -1.59,-1.91 -2.3,-2.61 -0.68,-0.67 -1.3,-1.19 -1.86,-1.55 -0.58,-0.37 -1.19,-0.7 -1.77,-0.96 -0.59,-0.25 -1.18,-0.46 -1.75,-0.6l-1.75 -0.2 -2.89 -0.07 -8.54 0 0 30.77 -13.34 0 0 -2.07zm13.34 -40.77l17.6 0c3.95,0 6.97,-0.39 9.09,-1.17 0.99,-0.35 1.84,-0.82 2.56,-1.37 0.7,-0.55 1.29,-1.2 1.77,-1.95 0.51,-0.8 0.89,-1.62 1.14,-2.47 0.24,-0.82 0.37,-1.71 0.37,-2.64 0,-1.35 -0.24,-2.57 -0.72,-3.65 -0.46,-1.07 -1.18,-2.04 -2.14,-2.89 -0.94,-0.85 -2.2,-1.49 -3.77,-1.93 -1.67,-0.46 -3.7,-0.7 -6.08,-0.7l-19.82 0 0 18.78zm66.62 40.77l0 -71.34 25.94 0c2.72,0 5.16,0.09 7.27,0.25 2.16,0.17 4.01,0.44 5.52,0.79 2.13,0.49 4.12,1.2 5.95,2.09 1.86,0.92 3.56,2.03 5.08,3.32 1.97,1.66 3.69,3.56 5.16,5.68 1.45,2.1 2.67,4.44 3.63,7 0.96,2.52 1.68,5.23 2.15,8.11 0.48,2.87 0.72,5.91 0.72,9.1 0,2.69 -0.16,5.26 -0.48,7.7 -0.32,2.43 -0.8,4.72 -1.45,6.87 -0.63,2.1 -1.37,4.06 -2.21,5.85 -0.84,1.81 -1.79,3.44 -2.82,4.86 -1.02,1.42 -2.11,2.69 -3.25,3.83 -1.14,1.14 -2.35,2.13 -3.59,2.96 -1.23,0.83 -2.61,1.57 -4.12,2.21 -1.46,0.62 -3.08,1.14 -4.81,1.57 -1.73,0.42 -3.56,0.73 -5.49,0.93 -1.95,0.2 -4,0.31 -6.14,0.31l-27.07 0 0 -2.07zm13.33 -10.2l12.7 0c2.21,0 4.17,-0.1 5.86,-0.3 1.66,-0.19 3.07,-0.48 4.23,-0.87 1.16,-0.38 2.2,-0.84 3.11,-1.36 0.88,-0.51 1.65,-1.09 2.28,-1.72 0.96,-0.96 1.82,-2.11 2.57,-3.41 0.76,-1.33 1.43,-2.85 1.99,-4.57 0.57,-1.72 1,-3.64 1.28,-5.73 0.29,-2.11 0.43,-4.45 0.43,-7 0,-3.49 -0.29,-6.56 -0.85,-9.19 -0.54,-2.57 -1.35,-4.73 -2.41,-6.46 -1.09,-1.79 -2.28,-3.27 -3.56,-4.43 -1.25,-1.13 -2.62,-1.99 -4.08,-2.56 -1.05,-0.4 -2.49,-0.72 -4.3,-0.94 -1.88,-0.22 -4.16,-0.34 -6.8,-0.34l-12.46 0 0 48.88zm65.72 -14.11l10.61 -0.95 0.24 2c0.19,1.62 0.5,3.07 0.92,4.34 0.41,1.24 0.95,2.36 1.6,3.32 0.61,0.92 1.42,1.77 2.42,2.54 1.01,0.79 2.25,1.51 3.66,2.13 1.42,0.62 2.96,1.1 4.58,1.41 1.64,0.32 3.38,0.48 5.21,0.48 1.64,0 3.19,-0.12 4.6,-0.36 1.39,-0.24 2.71,-0.59 3.91,-1.06 1.16,-0.45 2.19,-1 3.03,-1.61 0.81,-0.58 1.48,-1.24 2,-1.97 0.54,-0.75 0.94,-1.53 1.2,-2.29 0.25,-0.76 0.38,-1.58 0.38,-2.43 0,-0.87 -0.12,-1.68 -0.36,-2.38 -0.24,-0.72 -0.6,-1.4 -1.09,-2.03 -0.48,-0.62 -1.16,-1.21 -2.01,-1.76 -0.9,-0.59 -2.02,-1.14 -3.34,-1.65 -0.92,-0.35 -2.37,-0.8 -4.32,-1.33 -2.03,-0.55 -4.63,-1.21 -7.76,-1.97 -3.26,-0.78 -6.02,-1.54 -8.27,-2.26 -2.34,-0.75 -4.21,-1.51 -5.59,-2.24 -1.79,-0.94 -3.36,-2.01 -4.7,-3.18 -1.38,-1.2 -2.53,-2.54 -3.45,-4 -0.92,-1.45 -1.61,-2.99 -2.07,-4.61 -0.46,-1.64 -0.69,-3.35 -0.69,-5.12 0,-1.95 0.28,-3.85 0.84,-5.68 0.56,-1.84 1.4,-3.6 2.49,-5.27 1.11,-1.7 2.48,-3.2 4.1,-4.49 1.6,-1.28 3.45,-2.36 5.53,-3.22 2.03,-0.85 4.19,-1.48 6.44,-1.9 2.27,-0.42 4.62,-0.63 7.06,-0.63 2.67,0 5.22,0.22 7.62,0.66 2.41,0.44 4.67,1.1 6.74,1.99 2.13,0.89 4.04,2.02 5.7,3.35 1.68,1.36 3.11,2.94 4.28,4.73 1.15,1.77 2.05,3.65 2.67,5.65 0.62,1.99 0.98,4.11 1.07,6.32l0.07 1.99 -12.79 0.99 -0.21 -2c-0.21,-1.95 -0.66,-3.65 -1.35,-5.08 -0.66,-1.36 -1.57,-2.52 -2.69,-3.44 -1.14,-0.94 -2.58,-1.66 -4.31,-2.13 -1.81,-0.5 -3.97,-0.75 -6.46,-0.75 -2.61,0 -4.85,0.23 -6.69,0.7 -1.73,0.43 -3.11,1.07 -4.13,1.89 -1.04,0.83 -1.82,1.74 -2.31,2.71 -0.48,0.92 -0.72,1.93 -0.72,3.04 0,0.95 0.17,1.8 0.5,2.56 0.32,0.75 0.83,1.44 1.5,2.04 0.69,0.62 2.07,1.3 4.14,2.04 2.22,0.79 5.15,1.6 8.75,2.41 3.7,0.84 6.89,1.65 9.54,2.41 2.67,0.77 4.74,1.49 6.19,2.14 2.17,1 4.06,2.14 5.67,3.41 1.66,1.32 3.03,2.77 4.11,4.37 1.07,1.58 1.88,3.31 2.42,5.16 0.54,1.84 0.81,3.79 0.81,5.82 0,2.03 -0.3,4.02 -0.89,5.96 -0.58,1.91 -1.45,3.78 -2.61,5.56 -1.17,1.8 -2.6,3.42 -4.25,4.81 -1.64,1.37 -3.54,2.56 -5.7,3.54 -2.12,0.97 -4.37,1.7 -6.74,2.18 -2.37,0.49 -4.86,0.72 -7.46,0.72 -3.24,0 -6.24,-0.24 -8.97,-0.72 -2.79,-0.48 -5.31,-1.22 -7.57,-2.19 -2.3,-0.99 -4.36,-2.24 -6.17,-3.73 -1.82,-1.5 -3.38,-3.27 -4.7,-5.28 -1.31,-2 -2.32,-4.13 -3,-6.39 -0.69,-2.24 -1.07,-4.63 -1.14,-7.13l-0.06 -1.94 1.95 -0.17zm183.05 24.31l0 -71.34 28.06 0c2.74,0 5.23,0.18 7.48,0.55 2.29,0.38 4.33,0.96 6.08,1.72 1.78,0.77 3.38,1.78 4.79,3 1.4,1.22 2.61,2.65 3.63,4.29 1.01,1.62 1.77,3.27 2.27,4.95 0.51,1.72 0.77,3.49 0.77,5.28 0,1.66 -0.23,3.29 -0.68,4.87 -0.46,1.58 -1.14,3.11 -2.03,4.57 -0.9,1.48 -2.05,2.83 -3.41,4.02l-0.99 0.81c0.73,0.37 1.42,0.76 2.08,1.19 1.82,1.18 3.36,2.61 4.62,4.28 1.26,1.66 2.22,3.48 2.85,5.45 0.63,1.96 0.95,4.05 0.95,6.28 0,1.77 -0.19,3.5 -0.57,5.17 -0.37,1.65 -0.95,3.26 -1.71,4.8 -0.75,1.54 -1.6,2.9 -2.52,4.07 -0.95,1.21 -2.01,2.26 -3.17,3.12 -1.14,0.85 -2.4,1.58 -3.8,2.21 -1.35,0.61 -2.86,1.13 -4.51,1.55 -1.61,0.41 -3.41,0.73 -5.38,0.93 -1.96,0.2 -4.07,0.3 -6.32,0.3l-28.5 0 0 -2.07zm13.34 -42.22l12.91 0c2.01,0 3.68,-0.06 5.02,-0.19 1.31,-0.12 2.36,-0.3 3.12,-0.53 0.98,-0.28 1.82,-0.66 2.53,-1.13 0.67,-0.44 1.24,-0.98 1.68,-1.58 0.44,-0.6 0.79,-1.31 1.01,-2.09 0.23,-0.8 0.35,-1.72 0.35,-2.75 0,-0.98 -0.11,-1.89 -0.34,-2.72 -0.21,-0.8 -0.55,-1.57 -0.99,-2.25 -0.43,-0.68 -0.94,-1.25 -1.52,-1.69 -0.59,-0.45 -1.29,-0.81 -2.08,-1.06 -0.89,-0.28 -2.15,-0.5 -3.75,-0.64 -1.64,-0.15 -3.7,-0.23 -6.17,-0.23l-11.78 0 0 16.85zm0 32.02l15.18 0c2.85,0 4.81,-0.1 5.87,-0.3 0.96,-0.17 1.83,-0.39 2.6,-0.66 0.74,-0.26 1.41,-0.58 1.98,-0.94 0.55,-0.34 1.05,-0.77 1.49,-1.25 0.46,-0.52 0.9,-1.14 1.27,-1.84 0.37,-0.68 0.65,-1.42 0.84,-2.22 0.19,-0.82 0.28,-1.71 0.28,-2.65 0,-1.11 -0.13,-2.13 -0.41,-3.05 -0.27,-0.91 -0.68,-1.75 -1.21,-2.52 -0.53,-0.77 -1.17,-1.42 -1.9,-1.96 -0.74,-0.54 -1.6,-0.98 -2.56,-1.29 -1.02,-0.34 -2.32,-0.6 -3.88,-0.78 -1.6,-0.18 -3.47,-0.28 -5.6,-0.28l-13.96 0 0 19.76zm63.42 10.2l0 -71.34 13.33 0 0 73.41 -13.33 0 0 -2.07zm53.23 0l0 -59.07 -22.83 0 0 -12.27 59 0 0 12.27 -22.83 0 0 61.15 -13.34 0 0 -2.07zm103.69 -26.3l11.2 2.82 -0.5 2c-1.01,3.98 -2.43,7.48 -4.26,10.51 -1.84,3.06 -4.12,5.67 -6.82,7.81 -2.69,2.13 -5.68,3.73 -8.95,4.79 -3.26,1.06 -6.8,1.59 -10.61,1.59 -3.88,0 -7.43,-0.4 -10.64,-1.2 -3.25,-0.81 -6.15,-2.05 -8.68,-3.7 -2.53,-1.64 -4.75,-3.65 -6.65,-5.99 -1.89,-2.35 -3.49,-5.07 -4.79,-8.13 -1.28,-3.02 -2.24,-6.15 -2.87,-9.37 -0.63,-3.22 -0.96,-6.55 -0.96,-9.99 0,-3.75 0.37,-7.27 1.08,-10.56 0.72,-3.3 1.82,-6.39 3.28,-9.24 1.47,-2.87 3.26,-5.39 5.36,-7.58 2.1,-2.19 4.53,-4.05 7.25,-5.53 2.68,-1.47 5.52,-2.59 8.49,-3.32 2.97,-0.74 6.07,-1.11 9.27,-1.11 3.67,0 7.06,0.47 10.16,1.41 3.14,0.96 5.99,2.39 8.53,4.29 2.54,1.9 4.72,4.2 6.5,6.88 1.76,2.64 3.14,5.67 4.12,9.07l0.6 2.09 -12.98 3.07 -0.58 -1.83c-0.74,-2.34 -1.65,-4.36 -2.72,-6.04 -1.03,-1.63 -2.22,-2.94 -3.53,-3.93 -1.34,-1 -2.85,-1.76 -4.52,-2.26 -1.71,-0.51 -3.64,-0.77 -5.76,-0.77 -4.86,0 -8.92,1.15 -12.12,3.43 -1.6,1.16 -2.97,2.5 -4.09,4.03 -1.13,1.54 -2.03,3.29 -2.67,5.22 -0.68,2.03 -1.21,4.12 -1.55,6.23 -0.34,2.08 -0.51,4.23 -0.51,6.41 0,5.64 0.81,10.54 2.41,14.67 0.77,1.98 1.77,3.72 2.96,5.2 1.17,1.44 2.56,2.65 4.16,3.62 1.66,1 3.37,1.75 5.12,2.23 1.75,0.48 3.6,0.73 5.53,0.73 2.34,0 4.49,-0.34 6.43,-1 1.92,-0.65 3.67,-1.64 5.25,-2.95 1.57,-1.32 2.9,-2.96 3.97,-4.92 1.1,-2.01 1.95,-4.38 2.53,-7.12l0.45 -2.1 2.08 0.53zm25.44 -7.41c0,-5.97 0.82,-11.32 2.43,-16.02 1.64,-4.77 4.12,-8.91 7.42,-12.38 3.29,-3.46 7.07,-6.07 11.32,-7.8 4.23,-1.73 8.93,-2.59 14.08,-2.59 3.36,0 6.59,0.41 9.65,1.22 3.07,0.81 5.98,2.03 8.71,3.65 2.72,1.62 5.15,3.58 7.25,5.86 2.09,2.27 3.86,4.87 5.29,7.77 1.43,2.89 2.5,5.97 3.21,9.21 0.7,3.23 1.06,6.66 1.06,10.26 0,3.65 -0.38,7.13 -1.12,10.43 -0.74,3.3 -1.88,6.42 -3.37,9.34 -1.51,2.96 -3.35,5.56 -5.49,7.8 -2.15,2.25 -4.62,4.13 -7.41,5.66 -2.75,1.51 -5.62,2.65 -8.6,3.39 -2.97,0.76 -6.05,1.13 -9.22,1.13 -3.43,0 -6.71,-0.42 -9.8,-1.25 -3.1,-0.84 -6.03,-2.1 -8.77,-3.78 -2.73,-1.67 -5.15,-3.67 -7.23,-5.97 -2.07,-2.28 -3.82,-4.89 -5.23,-7.78 -1.39,-2.85 -2.44,-5.81 -3.13,-8.83 -0.7,-3.04 -1.05,-6.15 -1.05,-9.34zm13.62 0.16c0,3.95 0.53,7.46 1.57,10.51 1.02,3 2.56,5.6 4.59,7.77 2.03,2.17 4.34,3.81 6.89,4.9 2.55,1.09 5.38,1.63 8.49,1.63 3.17,0 6.04,-0.55 8.62,-1.65 2.57,-1.09 4.86,-2.74 6.89,-4.93 2.02,-2.19 3.54,-4.87 4.56,-8.01 1.04,-3.22 1.57,-6.95 1.57,-11.19 0,-5.34 -0.89,-9.98 -2.67,-13.88 -0.86,-1.91 -1.94,-3.62 -3.2,-5.1 -1.26,-1.46 -2.72,-2.73 -4.37,-3.76 -1.65,-1.04 -3.42,-1.83 -5.3,-2.36 -1.86,-0.53 -3.85,-0.79 -5.95,-0.79 -5.94,0 -11.05,2.04 -15.31,6.1 -2.08,1.98 -3.65,4.66 -4.71,8.02 -1.1,3.5 -1.66,7.76 -1.66,12.75zm76.27 33.55l0 -71.34 13.33 0 0 73.41 -13.33 0 0 -2.07zm35.52 0l0 -71.34 12.58 0 33.18 49.63 0 -49.63 12.95 0 0 73.41 -12.59 0 -33.17 -49.62 0 49.62 -12.95 0 0 -2.07zm203.64 0l0 -59.07 -22.83 0 0 -12.27 59 0 0 12.27 -22.83 0 0 61.15 -13.34 0 0 -2.07zm51.97 0l0 -71.34 32.77 0c3.14,0 5.95,0.17 8.4,0.49 2.52,0.33 4.66,0.85 6.42,1.53 1.82,0.7 3.48,1.68 4.93,2.93 1.44,1.23 2.71,2.74 3.78,4.5 1.05,1.73 1.85,3.56 2.38,5.5 0.53,1.93 0.8,3.94 0.8,6.01 0,2.7 -0.45,5.21 -1.34,7.52 -0.88,2.33 -2.23,4.44 -4,6.33 -1.77,1.89 -4.03,3.43 -6.74,4.6 -1.17,0.51 -2.43,0.96 -3.77,1.34l1.2 0.97c1.43,1.33 2.81,2.78 4.12,4.37 1.3,1.58 2.58,3.34 3.81,5.27l14.01 22.05 -16.35 0 -9.77 -15.37c-1.24,-1.96 -2.42,-3.74 -3.53,-5.34 -1.13,-1.64 -2.12,-3 -2.94,-4.05 -0.82,-1.03 -1.59,-1.91 -2.3,-2.61 -0.68,-0.67 -1.3,-1.19 -1.86,-1.55 -0.58,-0.37 -1.18,-0.7 -1.77,-0.96 -0.59,-0.25 -1.18,-0.46 -1.75,-0.6l-1.75 -0.2 -2.89 -0.07 -8.54 0 0 30.77 -13.34 0 0 -2.07zm13.34 -40.77l17.6 0c3.94,0 6.97,-0.39 9.09,-1.17 0.99,-0.35 1.84,-0.82 2.56,-1.37 0.7,-0.55 1.3,-1.2 1.77,-1.95 0.51,-0.8 0.89,-1.62 1.14,-2.47 0.24,-0.82 0.37,-1.71 0.37,-2.64 0,-1.35 -0.24,-2.57 -0.72,-3.65 -0.46,-1.07 -1.18,-2.04 -2.14,-2.89 -0.94,-0.85 -2.2,-1.49 -3.77,-1.93 -1.67,-0.46 -3.7,-0.7 -6.08,-0.7l-19.83 0 0 18.78zm59.17 40.04l27.08 -70.61 12.89 0 29.88 73.41 -14.93 0 -8.01 -20.99 -26.28 0 -7.51 20.99 -14.2 0 1.08 -2.81zm24.84 -29.78l17.64 0 -6.17 -16.41 -2.77 -7.69c-0.63,2.17 -1.35,4.36 -2.14,6.54l-6.56 17.56zm57.43 30.51l0 -71.34 25.94 0c2.72,0 5.16,0.09 7.27,0.25 2.16,0.17 4.01,0.44 5.52,0.79 2.13,0.49 4.12,1.2 5.95,2.09 1.86,0.92 3.56,2.03 5.08,3.32 1.96,1.66 3.69,3.56 5.16,5.68 1.45,2.1 2.67,4.44 3.63,7 0.96,2.52 1.68,5.23 2.15,8.11 0.47,2.87 0.71,5.91 0.71,9.1 0,2.69 -0.16,5.26 -0.48,7.7 -0.31,2.43 -0.8,4.72 -1.45,6.87 -0.63,2.1 -1.37,4.06 -2.21,5.85 -0.84,1.81 -1.8,3.44 -2.82,4.86 -1.02,1.42 -2.11,2.69 -3.25,3.83 -1.14,1.14 -2.34,2.13 -3.59,2.96 -1.23,0.83 -2.61,1.57 -4.12,2.21 -1.46,0.62 -3.08,1.14 -4.81,1.57 -1.73,0.42 -3.56,0.73 -5.49,0.93 -1.95,0.2 -4,0.31 -6.14,0.31l-27.07 0 0 -2.07zm13.34 -10.2l12.7 0c2.21,0 4.17,-0.1 5.86,-0.3 1.66,-0.19 3.07,-0.48 4.23,-0.87 1.16,-0.38 2.2,-0.84 3.11,-1.36 0.88,-0.51 1.65,-1.09 2.28,-1.72 0.96,-0.96 1.82,-2.11 2.57,-3.41 0.76,-1.33 1.43,-2.85 1.99,-4.57 0.57,-1.72 1,-3.64 1.28,-5.73 0.29,-2.11 0.44,-4.45 0.44,-7 0,-3.49 -0.29,-6.56 -0.85,-9.19 -0.54,-2.57 -1.35,-4.73 -2.4,-6.46 -1.09,-1.79 -2.28,-3.27 -3.56,-4.43 -1.25,-1.13 -2.62,-1.99 -4.08,-2.56 -1.05,-0.4 -2.49,-0.72 -4.3,-0.94 -1.88,-0.22 -4.16,-0.34 -6.81,-0.34l-12.46 0 0 48.88zm68.37 10.2l0 -71.34 13.33 0 0 73.41 -13.33 0 0 -2.07zm35.52 0l0 -71.34 12.58 0 33.18 49.63 0 -49.63 12.95 0 0 73.41 -12.59 0 -33.17 -49.62 0 49.62 -12.95 0 0 -2.07zm112.66 -27.18l0 -10.2 33.46 0 0 28.73 -0.79 0.63c-2.32,1.85 -4.7,3.49 -7.11,4.88 -2.41,1.4 -4.87,2.59 -7.38,3.53 -2.5,0.94 -5.04,1.66 -7.63,2.13 -2.59,0.48 -5.21,0.72 -7.84,0.72 -3.55,0 -6.96,-0.38 -10.21,-1.14 -3.25,-0.76 -6.35,-1.92 -9.3,-3.46 -2.96,-1.56 -5.57,-3.46 -7.81,-5.71 -2.25,-2.25 -4.12,-4.85 -5.64,-7.8 -1.51,-2.91 -2.63,-6 -3.37,-9.23 -0.74,-3.23 -1.12,-6.63 -1.12,-10.18 0,-3.5 0.37,-6.91 1.11,-10.22 0.74,-3.3 1.85,-6.5 3.33,-9.56 1.5,-3.11 3.34,-5.83 5.5,-8.14 2.17,-2.32 4.7,-4.26 7.55,-5.78 2.82,-1.51 5.83,-2.64 9.04,-3.39 3.2,-0.74 6.61,-1.12 10.22,-1.12 2.62,0 5.13,0.22 7.51,0.64 2.41,0.44 4.7,1.09 6.83,1.95 2.17,0.87 4.14,1.93 5.85,3.15 1.74,1.23 3.25,2.66 4.51,4.25 1.25,1.58 2.36,3.4 3.3,5.44 0.93,2.03 1.71,4.26 2.33,6.68l0.5 1.97 -12.19 3.32 -0.57 -1.93c-0.5,-1.66 -1.05,-3.15 -1.64,-4.44 -0.59,-1.26 -1.23,-2.35 -1.9,-3.24 -0.64,-0.83 -1.44,-1.6 -2.38,-2.29 -0.97,-0.71 -2.1,-1.34 -3.38,-1.88 -1.3,-0.54 -2.67,-0.96 -4.11,-1.24 -1.44,-0.27 -2.99,-0.41 -4.61,-0.41 -1.96,0 -3.79,0.15 -5.47,0.45 -1.66,0.29 -3.2,0.74 -4.58,1.31 -1.39,0.59 -2.65,1.25 -3.75,2.01 -1.09,0.75 -2.06,1.59 -2.89,2.51 -0.86,0.95 -1.62,1.96 -2.28,3 -0.67,1.05 -1.23,2.14 -1.69,3.24 -0.82,2.03 -1.45,4.14 -1.86,6.32 -0.41,2.19 -0.63,4.48 -0.63,6.87 0,2.97 0.25,5.68 0.75,8.12 0.49,2.4 1.23,4.58 2.2,6.5 0.96,1.87 2.14,3.52 3.53,4.92 1.38,1.38 3,2.52 4.82,3.43 1.87,0.94 3.82,1.64 5.83,2.11 1.99,0.47 4.06,0.71 6.18,0.71 1.84,0 3.66,-0.18 5.46,-0.54 1.81,-0.36 3.61,-0.9 5.37,-1.62 1.76,-0.71 3.34,-1.47 4.72,-2.26 0.98,-0.56 1.84,-1.13 2.56,-1.7l0 -9.96 -20.32 0 0 -2.07z"/>
    <path class="fil0" d="M3258.19 672.5c12.79,0 23.15,10.37 23.15,23.15 0,12.79 -10.37,23.15 -23.15,23.15 -12.79,0 -23.15,-10.37 -23.15,-23.15 0,-12.79 10.37,-23.15 23.15,-23.15z"/>
    <path class="fil0" d="M3828.08 672.5c12.79,0 23.15,10.37 23.15,23.15 0,12.79 -10.37,23.15 -23.15,23.15 -12.79,0 -23.15,-10.37 -23.15,-23.15 0,-12.79 10.37,-23.15 23.15,-23.15z"/>
   </g>
  </g>
 </g>
</svg>
