
<svg width="24" height="31" viewBox="0 0 24 31" fill="none" xmlns="http://www.w3.org/2000/svg">
<path fill-rule="evenodd" clip-rule="evenodd" d="M6.74999 6.80488C6.74999 3.89563 9.1142 1.5122 12 1.5122C14.8858 1.5122 17.25 3.89563 17.25 6.80488V9.82927H6.74999V6.80488ZM5.25143 9.87645C5.25048 9.86085 5.25 9.84511 5.25 9.82927V6.80488C5.25 3.06047 8.28578 0 12 0C15.7142 0 18.75 3.06046 18.75 6.80488V9.82927C18.75 9.84512 18.7495 9.86085 18.7486 9.87646C21.6987 10.2508 24 12.8067 24 15.878V24.9512C24 28.278 21.3 31 18 31H5.99999C2.7 31 0 28.278 0 24.9512V15.878C0 12.8067 2.3013 10.2508 5.25143 9.87645ZM8.99999 20.4146C8.99999 22.078 10.35 23.439 12 23.439C13.65 23.439 15 22.078 15 20.4146C15 18.7512 13.65 17.3902 12 17.3902C10.35 17.3902 8.99999 18.7512 8.99999 20.4146Z" fill="#2E2A38"/>
</svg>
